<mxfile host="app.diagrams.net" modified="2022-09-19T13:47:25.739Z" agent="5.0 (Windows NT 10.0; Win64; x64) AppleWebKit/537.36 (KHTML, like Gecko) Chrome/105.0.0.0 Safari/537.36" etag="fns3yGRo-6_MomCrgRSt" version="20.3.2" type="github">
  <diagram id="PsEpLtj6iR0-Zhs7XF6L" name="PÃ¡gina-1">
    <mxGraphModel dx="1422" dy="1874" grid="0" gridSize="10" guides="1" tooltips="1" connect="1" arrows="1" fold="1" page="1" pageScale="1" pageWidth="827" pageHeight="1169" math="0" shadow="0">
      <root>
        <mxCell id="0" />
        <mxCell id="1" parent="0" />
        <mxCell id="EOwc6H_RPZuB2ROWFksD-14" value="AWS Cloud" style="points=[[0,0],[0.25,0],[0.5,0],[0.75,0],[1,0],[1,0.25],[1,0.5],[1,0.75],[1,1],[0.75,1],[0.5,1],[0.25,1],[0,1],[0,0.75],[0,0.5],[0,0.25]];outlineConnect=0;gradientColor=none;html=1;whiteSpace=wrap;fontSize=12;fontStyle=0;container=1;pointerEvents=0;collapsible=0;recursiveResize=0;shape=mxgraph.aws4.group;grIcon=mxgraph.aws4.group_aws_cloud_alt;strokeColor=#232F3E;fillColor=none;verticalAlign=top;align=left;spacingLeft=30;fontColor=#232F3E;dashed=0;" parent="1" vertex="1">
          <mxGeometry x="71" y="-136" width="766" height="248" as="geometry" />
        </mxCell>
        <mxCell id="EOwc6H_RPZuB2ROWFksD-20" value="" style="dashed=0;verticalAlign=top;fontStyle=1;strokeColor=#FF8000;fontColor=#FF8000;align=left;" parent="EOwc6H_RPZuB2ROWFksD-14" vertex="1">
          <mxGeometry x="230" y="49" width="233" height="163" as="geometry" />
        </mxCell>
        <mxCell id="EOwc6H_RPZuB2ROWFksD-19" value="" style="sketch=0;points=[[0,0,0],[0.25,0,0],[0.5,0,0],[0.75,0,0],[1,0,0],[0,1,0],[0.25,1,0],[0.5,1,0],[0.75,1,0],[1,1,0],[0,0.25,0],[0,0.5,0],[0,0.75,0],[1,0.25,0],[1,0.5,0],[1,0.75,0]];outlineConnect=0;fontColor=#232F3E;gradientColor=#F78E04;gradientDirection=north;fillColor=#D05C17;strokeColor=#ffffff;dashed=0;verticalLabelPosition=bottom;verticalAlign=top;align=center;html=1;fontSize=12;fontStyle=0;aspect=fixed;shape=mxgraph.aws4.resourceIcon;resIcon=mxgraph.aws4.eks;" parent="EOwc6H_RPZuB2ROWFksD-14" vertex="1">
          <mxGeometry x="230" y="49" width="27" height="27" as="geometry" />
        </mxCell>
        <mxCell id="EOwc6H_RPZuB2ROWFksD-17" value="" style="shape=image;imageAspect=0;aspect=fixed;verticalLabelPosition=bottom;verticalAlign=top;strokeColor=#FF8000;strokeWidth=1;align=left;image=data:image/png,iVBORw0KGgoAAAANSUhEUgAAAMAAAABoCAYAAACnk/+EAAAAAXNSR0IArs4c6QAAAARnQU1BAACxjwv8YQUAAAAJcEhZcwAADsIAAA7CARUoSoAAAC6cSURBVHhe7X0HYBzF1f/v1LslS24UU2zTqwsdE0wPCRAIxfQWOgECpH4k+aeQfwgQQvIlQCghQAgJiSmJqSGmu4DpGIyNC9iAi2T1enff+72Z2d07naw96SQbdD9b+2Zn376d3Xlv5k29SFyALLIYosixNIsshiSyBpDFkEbWALIY0sgaQBZDGlkDyGJII2sAWQxpZA0giyGNrAFkMaSRNYAshjSyBpDFkEbWALIIhdZO4Is4ZyY7FyiLlIiJVry3CliyBljZADS1AyPLgV3HANuPBnK/IEVnaAP4+NvDEGEZEDHnEUtFgomSg4syAYm3ET4v/9vHadhQJSLHBJLiUz6zh3iBk5PIS5oULzBhI8fw8JAinnDhlPJDPPM8E/48YMla4P5XgaW13Ut9vspWNcBJuwNbVtv3/BwjvAFcPUzfdqM1Au8gJKWSEoZfw/aa4QnEEy7ckxwX7x2EKPXf1+flQeLPN/dsrGhoA5aJwr+wBHhrJdAZtRd6QH4usPMmwL5biSEMB8qLvE/xuUJ6BkBoxhqF0VP31s4IGPQCPGSNQOn5MY3a2EDf/pWPgPnyt0jcnTY5TwdF+cB4qREmbQ5MHivnefbC5wShDeAjMQCXryZjjcLoqbuQNQJPTjJv5IKNywCikpxXRekffhuobQa6+pm8PGkTDC8Fjt4ZmLiZOf88ILwBXOVcIAsNG4XRU3fBGYFet9DA0DaCnI3AAJjTda3AYinpn3rf+vgm+RkD33lrcYkO2U7aCtJGqCyWd3ffYSNEegZAyMt476Nhud1G+BmeNQInx/HmXLhhDWCtlPKvLAdeF/+ejVzWAAMJKv3W4hrtKu2EPbcAqkrshY0MoQ1g+ZWVkpmWVV7O5qsNG4XRU3dBeL2gF+BhaBrBhjKAlg7gmQ+kcbsYqJeGbn9dnXRBV6isEJg6HjhwgoQL7IWNBGkZAJE1AtIe5Lh47yBEaRy5Fw2e5rF0p6vD3pwn3jOl/8aAamkjHCquEWuFYeIabQzthPAG8C0xAC9T7S1ybqNs2CiMnroLwqtBvW6hgaFlBLkX9dKvmAEwJz9aB7z2MTBf/j6p19RvdNhEvOndN5W/zYEtqmzkBkJoA1gmBpCYqfY2ObdRNizxHo+hQ90IeH2gDWB1E/DYAuCdT8TVkdI/apKw0YIjyRVFwI6jgcO3B0aV2wuDjPAGcIWpAVymKklWSELDEu/xGOoZAYNegId+GEGsy8Tn5Amxz5Q4lSNxyhNMi3cQ0pPyWn4N22uGJxBPuHBPcly8PeRdnHkD4GBVXQswaxHwvPj4bfI5Po/gWML+W5s2AnuNOMg2WEjPAAgvg/XMUyQvntCwURg9dReE1wt6AR7SNALEEG9vQ6SkVMISGZOWHo0gLhqQK1+T97W1IFIoLa6cHOEIpMU7CBksI5CTTBoAFZ9dma+vMH3566TE/yKgQpR/irhFu4p7NGHE4LQRQhvA0surPIXxM1jPuscTGpZ4j8dQzwj0uoUGwhlBvEOKPIkq3PlrKDn4J4i3rEHjvV9BvKsdkbxClJ/6CCKlI9H2zA/R+c4MMQC5r7DIyHHyvYOQnpTX8mvYXjM8gXjChXuSY98375L+GwCf8MEq4On3gSW1plcnXO59fsDvN0xcoy2GAwdvA2wzUrLQfdMBQFoGQGwYI5Ar0XYp9buQv9lOKD3kxyjc8ThzXeJrfz0O8boVyKnaBJWXLxZDkC8o6FjwTzGEH6FrxdvIKZaaIFdqBKeo3kGIi0t6ZoKy22uGJxBPuHBPciQ+vx8GwJmZK6Vx+9DbpmeH54MFpj/PuiRd8gqD+GhtJ3C+0XG7AiNKzXmmkbYBEBk1Aga9AA9JRhCPIdbaitzySpRMvVL+rlIFj3dKTUA/v6sVdb/ZAbH6lcgdNgaV33xXnMgS0xYQypqh/aXr0SZ/8aZ1YgjiIolbpPK9A59l0t5NeTNkBPmX9s1B5yS1Fz8EHn/P9OkPJthVubl4vnRH+LoLV5up0Wx3DCYKxADZUP7SeDPpLpMIbVNBM/HCQjVoz+Nxm+suntCwxHs8hkJ4vaAX4EHirZxYa7O4960onnwyhl8yF6XT/keVv/WVu7DutqlSxDfLG9iRFblXb88RBRfjaLhjKtpfvUPdoqKpP0D5efNQsPvJiHV2It7W7m6xByH2md3ezaZdw/aa4QnEEy7co5z0IRUeZoo9P/zW4Co/XZB9pVH6ZVG6A8YBY8UIxkr5xzDj9tlKFLHQMg8COqTmeXyBGdPo67fsCWlVKl6mBpTUz3g96x5PaNgojJ66C8LrBS1V2VJqx5qakT92MqrOeQzDpt+H3JoJ6PxoLtbdcRga7jsb0bWLpE60uRB4pkLio7WL0fTAuWi8+xB0fTwHucPHo/S4+1B26uPI3XQy4s3iUslz9BZ730AaQV/AKQtzlg1elyZ7X6aMBaZPBCZvBowsS2yI8nqNuCJsqJ48CdhdeAoHafYnjYAGUJvh2ie8AdhM8I2AYV/xNNrjSYonNGwURk/dBeF18fFYVBS/UdyUalQc+2tUXzoHhdsejlizNHQfvgy1f5BS/b0nESmRnMiXnLDCeHTiDEQi3aDiCDoWPo2G2/dH878vETmrkD/+MKkN5qL4KzfKc0ZII1qMQJ7rMGBGkCZ424LPoCuxBhJsYNaIonMGJxV/ny3DKTWnPU+VWuK0ycBecg9Xiw3GpLdHpTbMJMK7QKmUV5AZI6C70yQlcidK9j0XNZfPQ+nUy0W3ctDy8q1Yc9MkNM26WXUtUlQq9yUlm3KcbAsjOiL84shKdPsL/4uGP0xE+7w/aHzhXleg7Lz5KJhyrjSwxfBaRdNsgjJtBH2CCOD8/IEEB5/oVx+xnVnYUiWfKl2Uige6h9QIh4uMA0QWR3kH0hA4yp3JiXxp1QA9G4EL2Msej/0SLp7QsJMTUR8/1tyIgnFTUX3hM6g84Y/IrdwMHR8+h7X/OxXrHrhAGrgrkFMqJX7EL5o82b7khKCG3R8byyXFiDWuQPOMi9B4+77oXDoLORWboeSoP6LsjFnI22o/xMTRjnfa9kEGjSD4rcKCPT2crjwQYD/AIdsCx+0C7DQGGC6VZX+Ulg1+Gs/OIuvYnaWdsIOZADcQaOk0DfFMIbwBEJqpJqP11MvYNNsE5Ke709iA3IpNUTX9Voy49FkUjtsf0XUfi9J/A2t+fxDaFz+PnBKpn/OLvWcp9QUpGJeoZOaZHqu7lleMSHGRKP9LaLrrQLQ8fI4Y13LkbTEVZWc+j+JjbkFO+WbaPmAvkqtRPNlCTdB8Aw3ba4YnEE94YfsN0sBi8f87MjiySwWnknIOzulTgB1GGZ8+/ZT1DMpiV+W4auDMPaR2mQCMqcj8gBbbRplC6KQlKoHJaD118YJQRiA3xJrrlZYdfBlGXf0KSvc5Ty7ExM35NVbdOAVNL9yOSG6+uC+i/PY+fl73rKDsIIJpYcmro8QSF+Rn2iOFogl5+Wibcycab52EtpdukAtRFE46X9yi11Cw7zdFVi7i4hZ5z3SynbxUspUG4gmGvZPweHOFDWQAVEDOyT9CSmZOOejLskVOs2BDNCxy5TNwBwnWBtPEEDjvJ1PYIAZAJCqByWg9DWTw+oyAo7ixlkYU7XgERl32LKqOvUlcmxq0LXgcn924F+oe/JZcr5W4CsTptlCGk600lTvB5/lpceBpj2nRY640povkeWvR+q+r0HDbHuj8YKbE1aD48N+g7KwXkDfhUDECcYs6TB9k4vsT5rkattcMTyC+j+DClUxhOyntJ4ufzsEkb3wiDXzaCNw/3/TC0AUhuK5gznLgVfrk63lRzv/fbiSwtdQKmQIn/jVnqFs47RogUQl8xQsqZjIPG7fRpnrkVo9DzZn3YORFM1Ewdgq6Vi/C2rtPxepbjkTHsnmi+NIq065NvdGJTpCnyiUOcrxdvoJeMEbhWBQSEW9rFBKVP+Z4QCEto5f2PHmeGEJ0xXw03XMkmh+cjujahcjdZApKT3kCxV//MyJV46XWki8e7TSPJJy8VLKVdo8Pi0bxwD7LoJ87oca4QH3FXFF0Dsh9KCXvX141I9L3vCIGsBSYLX/vfmoZewCNbnQGe4k4BSRTg3Fp1AABF8RlqGawyWg99TKavOZt41FRHHFnKo/8AcZ8Zx5K9zhVGpptqH/iWnx6/V5onnOfdllGisRZ7CZf5LigHuVc7o1JfZw//mBVXnWVIvIayiClOg1I4gu2P1pKbhpKi5Vn0qlBI0yIn3YUFCFSUICO1/+Kpj9OQduzPxHDbUXBzqdpb1Hhl74rX0tai1FpG7h7nLxUspUG4tMAJ7plCuzSHC2ftj9g3z99e+7+sJ+4UDSozSrlc0gclTrM7E26QOwxygRojJla5JOGARDpGIGEpaEbieRh5AUzUHXUz5BTVI6W12fgk+v2RN2MHyDW3oxIKRfbGwVOKUeNQOJjMUSbG0UHR6BSGs1Vpz+oyt+x5HmJr1UjiwntWPKsiMtFxQl/xrCzHkbeJrtLvBiB9u4EFNI9J/hM+RxsJMc7mtD65I/QdOtkdL77dzGMchRN+wWKT3pUXDMxMHmvxPcnUshW6ssPi0z6uOyf728jlFuncIE7fXm6M5zDz1Fhjh0Ui1KHMTD2CmWqZ0i8UnWDgrrWV4T/NN7DwhtBPBoTt6YaxeP2E2Powuq7z8CqW45F5yfvSPwwRPLk6wmzE5NajjxPDCXW1oISqT1qLp+Dkr3OU+NqevrnqLvrKFvLFEpcJ9bdfQwaZ34HsdY6FG5/FKounouyo64Xxa5WQ6DymufwATyQJD0zt0DbB9HV76L5/hPQ8o8TVXbu2Kkip0qf7fFqwN2+HiMICfrWXNWVKdD16IvfT7C//RNxxd7+BNhJlJ7dpw6cn8NRY06Q4wKc3sDSP1MNYX7Sj+vX3/YIi9AGEMzUtIyA/joVtKsDLW/9W+pLcVsKTO9Ot0Yq4eTwGaJo0cYG5NVMwPCz/4GqU+5BbuXmaF/8HNbevDcaHv0fxEQuFVZvzCnQZzU/fR1qb56E1nl3SFweSva/EpWXvIKivb4h16X0bpMckwTqM+2DU6Ud+ZJjnFr0wb8k/VKDROUvbkZhPBfP8Qo1QSNHw/aaxxMC9G1ZxWcCdE/Yx29Smh6YZHbFzlxgzktSuC/5oj002HekDcB2y/rAtNCV6qsxJuOjOmOg/UVaNUAwU9MxAoMIcgpZHOUkyElpBIJoqxQ90ugsP+hyjPjWXBTvcqzUAg2on3E51v7hIHQsZ6O5TMSJhvJeJ1TOOWgWrVuK+gfORd2tB6BzyXPIHbY5yo+9DcO+MQv54w5ErKVNXJ1W80z74NRpl09UIHW8yznGezwmLvH9CSNHw+5aSHCuS5gSNQxYYvd50pqkmwvr3VQMuhzJ+KzRdI2yzfJ2Lw1hYoSUe/Yr9husmdLdxS4V0q4BEjM1hBEY4oMRymPDJJ4RRMRD6dRSv2CLPTHi4qdReeyvpe1QgdY3/onVN05B439+o/5+pLDMl62BxLSwYZ1TXIKORc+h7rZpaHjwHETXLUP+Fvth2LnPoPyEO5FbtTViTWIE8kw+W+8Npt09gNTFuaA7D2MEaYCNu0zVAPS5S3sxgDVicIukpG9P6uOnvXMqNOcJsfR/c6UovBgBV6Ox5GVPDLtFqUDkDTN/iFMvMtUTxHRkYqpIGjWAKJhSm6lezvZiBB4fr1sZhPIYqoTXxH3hopXKr12LUVe8iMJxU9FV9xHW3nMq1txxHDpXL0JOGUvjPMTF9Yl3yp8TqJRpMV84Lo1mul+RQvEBxGBaX74Tdb+djOZnr1OFL5p0Fiovno+Sg9i7Iw1fNQK9VYhNO8NOfhASp9Eej32m43XXnRG4+F5An5bD/JwGkQlQcUut306RLMXfXyWNSDvCzBL+0beBf78DfLDaxAWxiXzqUyYCZ+1hVmZxN7knFwKzFhvl31QMhNOmObjGkeXewAE4umSZAtsm/UV4AyD6YgQ27IEyEngsZcMyko8R5z2EYYd+T3tyml68DZ/dsBeaZ98n7lOptB04EY53iDtVNgo55fzqifL0vEPcGzEmlamrwHIREXeJDeOmR76Dut9NQfs7DyFSNAylh/0CFac/Il8i3/BbWUEjUGpfxdQU5kQvO/71GUFIsGSlb5sJ8KnVomyui5KzO15aCjwtCvzvd0WRRZm5i4Srbda3YRaNkv471wksEkNZIO4OFZnTHNg7xH1+wo4uj+PimgyBq+O8791HhHeBvIxNwwgEDLpTP568VjEkTqOlccoeo8Kt9xVF7MLqO46Xkv98cVHWaI9RXJRYeVlLFFZgxOWz5W+uKrHWBpQhdTFHmvM2m4Th589CzeXzUbjriYi3m0Yv8opEVgm6Vr6B+ru/hoYHTtGSP3+LqYiUDNfnqhw9kEga+UxzoiBJPvfCPRmBe9deoAaQoR4guiXciMqBffZMCxWdyyu5uqtAlJZ+Od0SKjWfz9onmH/vfAbMeBN44UMjg12qXCnW1GHWJrMGcaPDYUC3KlOgG5aqbZIO0qoB/IwNaQT6J183kP/Bj9vNCMRtge0xal/4X1FucWDZE8Ob9L/wk1FyN7dshP7pGIIiIg1nUf6RE3SMoEBnd9ai7bUHJNd8P4AyIlKbMCfbFzyqvTvq/tBdsvL5CHMw/C7swcrxedxBSE9GEAKfSknbmCH/P9kASuQTbGanKnM//1MnAV/fxfzQBZcbUonvfVVqBXFtgtMw3HuwcU4Z3OKQSyTZUOclbmnCLtGwGCPtgEwuoulvOyAtAyD8jA1hBIb4ARfvXWDYKAzhRTP3tKtUqER68QyQn3F0cWgsel1K/rYm5JaPRtXZD2lXaeeK11F7x1GItTfKW4p744Qov0AMJ6K9Uny+6RLtZpB6ILHxhI0zPCYt9tQPpzCCMHgrAz6tA12f4YH5/UwLJ7QxKVwDwP13CBoER3i3F2+S26vQxZm33FwjOJBGsHZgdyenP3DXObcVC3uZ0h1o29Tus5wJ9HfUPHTSE5XWBXoxAsZ7cYk83eQFzg18Q1I5fjCBlUoY72jX0drhZ/0T+aN2QLR+BeruPg7x1nVmYbwVlCAvYHgKxvFfkhEE00kkxClPSCMIgUw06hxGSfkR3EWBrgzn7LAETh6QYkq55pdgac4RXoc1AReD942X0p9blrhBsZX1pneIoEsSpgeLblem8LG4c/2ZNp6G7QYUUuArQc9G0B0+r5IAb8K9pBrmMxMV0sU7xLukwRvPxfAz7kfBlnuLMTSj9u7j0bnqQ3GhJLf1IX7aE9/ByXEXLUn5TAsb578//wu/PVfiwmkYAefa8SeKMgU2Th3ek1L9P9L45ZSG1c2ppzXzRzJYa7A24FLMh94yg2DccY7dqYdtB5w8UWqPccCR4jJxvv8eY4FOqRkekjbCfeI+/WmuaWDTENaHTHaH8rvxnfqK8AagmegrEuErga/AjiqhAiTcwAN5AwrjLjsZhLvs8div5fFawkZrZxuGn3wbirb/ssbV/uUstH/wMnKKy+Q+x8hDkhHYsIOfDksCz0xklZaCvRa8pzcj6A1c/ZWp7k+CSxMd2IPD/flZarP//LUVib0+dGf4i5B0ZbgHELtHl9WZrlGmicsdOQco6Oqwpth7S7POgAa1RpSQb8r71atcDzgtIlMT49gY709DOLQB+JmaphHoZzHw4pUnoDCWUoahAeLxmGvkNfHirkhjufLYm1G619l6bd3DV6F13t91hNjJ92XzEDAC7+DDl62ncq7N4gQ+BhN5DOV5T0bgvdd6QN87k6gJ9LezO/Sk3YBTpOG74xjzQxnsx18gSs85/Sy12QCnstNw2K/vsK20Ddbns3P1FwfLNCy1x1d26H30meMT7EnKBLhdDA3Afep0kVYN4GdqekbgwcUTGg4oTApej3g8VpHknD03uaXVKN3jdI1qeOoXaHzqBkS4dtjKtbclKGly2g0o1/65+yxPtxKc15XH8GqUpXotGG8P7nJPoOJx3k2mwAZucKNcvgG7PFnqHjzBuDrsPXlSjIDtAj6fJTdLco5Ec9nkQduYezmZbn1g/z8NjODe/6xlkr5YN7BBzb9MgN+e4xSs2fqC0AawLi5v6TJTD/0wAhenPEkKEwQjlMeGe4II7Fq1UGoECXOukeN1aWHQUhPwn+nAexIMLEA1jRYabxHaCHoBJ8BlqvuToEvD0VpurJUKrhuSDV8uWfzqTlLqi2/PRe10dQjXUPbeqwfwsnPdwu7ZM+8js8osU2BDvK8N4fAukPsQQjWoh5BGYJGal/+twiRc95XX8FjKeKGR3DxEm9eg+ZX75SSCqhNvQfGuh+u+QgnpSpUWDQd4AvCU3fHzEORz5zYujBF4tAewEZfp/X/oUrE/3ylnEJzPT+Vndyh7iypF2Tndma4PR3jZBpi7zPCu6sW/ZsnrZoJyFzsOsK1vmvLLS82gW6pv31esYE/QQNcAlZHWpAw2dH1GYKghBD1qXnc8ifK686vyBuT4lySO/fi5Baj9+zfR8vo/dQvE6tPvQ/7mOyPWInWiGEUwLRqkDC+OBydb2hNtYjgciCNPIC2OPQjGaby92JsRuKiesFoenak1rg5UfE5gS7W1CtcHf23nxH2A+MZs5JL/wddFqaRUJajQtbbPPxl8r6XSWOasUIJdoJwvlKpRyu9Ct4u/SZzKKPsD1nTL+ziFJHwbQBFUKpuxegjEC1zYUyQLE804nz/hPvtHpJLHixq25zSASE4O1tx9Bjo+fk0av8NRffaDyKkYIwrNvrEURsCgC/D1uSY4rwAF238FMSlG2I2qz3FpZ9jjp0LTjEn1vz2QmDgNO37l8eNTgb0xVKC++rDrAxuInP+TznaCTCr/aAysDaKSLu7LyTZKMI1sY3BgjBv3stG7rbhObEBzdViqeUGr5LMyLZlWfof3PrOBNBHaAIJKkJjBhibECzTM664EJ2ycQZIR6J/wBtkTeP0LXjRDHOhqa8Lq249H17oVyB+5DarPEreIi2M66VgH0ythG+QEOV1Cufg5MaI8VE6/F1Vn/g25NdvrvqRcyM8lksng/d1qJSu0JyNIeKkkUKnoww4U2KjlpLewNQynS0yTBvCJuwNHS9tgP2kbsETnJDr+qPZ/PjClPDfs5RgBuzzpOnG5JDfOPWzb7gNtVPpnF5m2zkDh3YE2ACJRIW1QqAb1EIgXMJic9T4v4fN7US7g4r0LDPsK5kHOuc9P16rFWHPniVKKN6No/AGoOvmPiHG6dNS0jvz0WiOgAcQ6UXfX0Wh87Ae6y0TRLsej+rJ5KD38Gq1dYs1Nch+5A28hp6lGjM2BxE+j926WpgKrb+duDBTYR//iknB+sg6GsWuz1CjyLtIwZg8SF5/QUDmd+gNxZdxiGJb2LPk5LsBeJg6aBQe52NvD+UVcwDKQ4A8C9rYqLRXCG0C3zAxhBIy3YRINMs5FKCw/4724RJ6e4pXKH69HioehbeGLWHvvOXqpdPIpGPbVnyPaIsWOFeDJUSOgI5MjRtKKhsevxeqbJqP1tb/qlOvyw36CqotfFoM4BvHWKGLcgkW49WGEI+nUBD2ApSIbnQMNzpnhXKN0XRC6Ua6Hhe4Nt1TkL7eMEaXn29OAe3KxqPzzV2R+jKMnvN+HWiC8C+QdgpkawggsVFUCPI4aWEVykJtjrY1SQksRY5XMfw6VV+4Qvz2SL26OxvEgL1NageY5D6Duoe/o+bBDv4+KQ68UBU4yApHL/Uh18Tt3mZav0LXqfdTdMx21dx6Nzk/eRP7onVB5xgxUnv4X5I3YXmoSU7z46bAkhBF4NAVYonoyBxAsrfl7YulOt3ZTndl1uht/u6sG2GaE2SKdNQPRU/r5M06cODdYeL8PhpZGDWAUz8tg76XDG4EqeoDHUSVKpVRWxS5C+Z4nq2/e1Vwnymfq7uBzog2r9I+Rvhwp00vL0PDUdah/6pdoXzoHxTsfhbxR2yEmPr0qfgs3zAJK9j4bNZe9jJpLX9T1xrrWXZLX9tYjWPvbfa1b1Iii3aej6vxntWbgGmWC9/vP5Pn6jcCepkRffde+gHOB2FW5Ng1fnK7Q2XsCU6UtEPxNX06p/touwPRJqUeK2eZ4lr9caQ1oMPCh1HLp1nChfyLp7TPtmjf300Y2z/15HxLvwkIZ5HTlvIoajPvlmxKRgw+/u4so7WdmO5SAHOWNcw+hHGxyyd9RssNBvIL2Za9h3ZPXo2n+DGnQtiK3hMshc4RPFL1YwoJ4uzh/fAUrxwiLCX+zGhDHC/i8WPM6aSsUomTX41A+7UoUbD6R3B5a3/g7Gh//MbpWvivKniP3x5A/Zltxh36Eot2mGyapBdb8agJiDSu12zXhmST255G6xcu3qbomtZ9z1cNmbv1ggpta0Y3hCq+BAOfnuOkVgwlO3b56mj/VOwzCu0DOTPpQE/jHAH9ADmlEGqWc3Lbyd1/HqnsuRueqRSjcYneM+sZ92OTKp1E68VhxZVqlBF8nfFFEm9Yg2rhawlaglWOEiZEUlIny54sr1aI+fMnux2HkpbNQfcZ9qvxdqz9A3f3nov6Rq/V68a7HY8QVc1F2hDSA6RZJgrtW0y06GXV/Mm5Rx9KX1ZD0Z5jss7xnkqyvJugBmZoSkA7YYKQ7NBBdr3S12DU62MpP9PyVe0boGuCtM0wN4JfyvdcErAHyK0Zg3HVvSlwEi6UG6Ko3NUAqOWagrFMHslhzVOx3BqoOvRx5VWaCeut7z2DdE9ej5Z0n9Dy3WExeBfnPNHKkDdHWIHaQg+Idv4yKg69C0YQD9HJX7TI0zroJLXP/hFijKLPwF2y6HcoP/7EYyYnK0/np22h67IdofWsGbUkVWbdpJ3OsU+I45dE8R6FhQ5WkqAmGX5Pa77hhFvDep/ZkkMGuS05/yBT41vT5X1qSviuSCXCR/jWHJq6D6A1psBr0qSYwwQBPIJxQE1CR85BbVi161o7amTdg+U/2wNoZP9TSvni7aRhz2UyMvvRRFG1zAKIt9aLoHIakDNEyERprbdA9hYq2PxQjL34cIy8UXlH+aMOnWPfI9/DZryaj8embxMVp1x0muCFv56qFqP3TSVhzu5T0K00DuOqsf6LqjL8hb+QOOsdI1xWL8rP7VKHptRqvYUOV9FATpMK08aYLcUPgOfHROcC1nuSlBa5n4EzTDaH87HqlW5fuT6mGrgHePH2UX8oKUpXgSjweEattgBEY/yv+sFMcCy/bSgetcrg/v0UqOY4qxO+OtTUjf8RYVH7pAgw78EIpjc3K6qZXH5TG7g1o+3C2Po6ldbEYxrBDrkTJLl9VnmjzWjQ++zs0vXCrlP6fSK1RZPx3vYH/DaXxaNqKy1B2wDdRftD3pM1Qpg3hpv/+Cs3P/0bTEskzXR/JNY4fNlRJoCao/mHqGoCNxLvmSskpLsmGANsB3PIkE0b45ieZndSXDrhpL3+4z+2CERZpGMBoObKENudEb0bAX2HMrxyFCTdKi0giP/3zFaibdac2aPPcpriCVHIcVVCRpMRmd2bBmPGonHYxKg44DzkFZh5u40t/QvOrM1C29ykom3yCxsVa69Hw3B/Q+Nwt6FqzDDlFReK621UYTj6hYWsEcojEOuTeNuRVj8Gwo65D8aRTla3jo3moveVgeakO4wIJ/HRbGV7YUCXWCKp/1HPXC5f13fKiP6dmsMH3sMntFzZEyU9wGsb5+6BPvyEcvsLQl5NsDrykF+7JHWI3ZlMtWhZwukEuxpx5M7a65r+omHIcom2t6sJoyWvZkxvG3gW6FFJq55ZVSSn+MVb/5Qp8/NMpqH/2Vm04l+9zprhFD6vyxzpaUP+fm7Di2smo/cf31PXJ1Y14C+VRNpudfELDEm8fSNcLot+5VVvqVikeOCYh4Lu59/Pfn/+TZHs8vasWe2XYpcgdFjYE+B5U3r78DS81pS7DGwJcX3zUTn1TfiJ0DfDGaaNNFushfE3AhSuR3FxU7X8Kqo/8FgpGbKHXmt55BmsfFdfinaeFL0dcj/KUchw1sM+VP/7aDP34oi0novKwK1G87QFoeWsm6sW/71jxrrhZhVJDyFex9wbldG+kiuF1iryOThRssas0mr+LkoknKUu0fqW4QNehZc4dkstd2q1qbvK/gZ9u/k+WrWeo+TEn5/UM5sKsRWYmZpgpCxsLdt7EbObldokYTHDC3ul7mGWZfV1jHN4AThUXKCFTwxqBqIQYAbsv84ePQdW0c1B9+De1l4doeOUh1P77erQsfAmRfCnli6RIIUIYAQnn/jAur6wG0abPpKbJE+W3S5QEPfbNa7yciMsTbxWXbOQWKD/wCpTtf5F2n9JNa3ruZvn7DaJsO5SIMXFP0oCCp2MEvRkAwZmhnGTG5YrhciXzYC3EdgHfhztCuLXDXFPMblPO9eG4BQfVCA6UcQ5OT4tvBhInTQQOnNB35SdCG8DrYgAuMx0NbwR6FENoE2VrQP7IrVF96IUYfsgF4pubBaXrnrsbtY/fhLZlryNXFFh/yI7yeVEOQXndFU/cKCmdc6SmcRe8tAhSlfj6K5Bs9IpbVb7/+ag46CpwZzqiee7daHz6OnSulJqkqEDcJ2oE02LkeLKVJqeFAf5PfGbN/+vdAAiWpHdLoziTW6SEBXdr4IgvFZpTH/hDd5wFynn+5+xltj9ho53rjdmDxKWIR+9s5vhzUcpggQrPUv+0Kek3epORVhtAszRANZuVGnjhlG0CUZRccUvKR+gUhk/uvRqL/2cv1D59mw5sVU49A1v9ZDZGn34zcodvJjxrpRTmlofytnJ/UF7wuYZK45WbX/F1EuINEsPi53MwLdqF0n3OwuirZ6PyqF+o8rcteBKf3TQVa/98JrpWvaddpGF+s8ydB+M13V44PDiKyfZAcFe3wQKVif34Tyww2x5yyxO3wJ2l/7xlJp5boXN3uOAuEYMJbvnCpZz9VX4ijVdIVERH0zMCBuQvvwh55TXoWLUEK++4AB9esw/qX/qrNlSHH3apGMIcjDjh58iRRmi0UQyBc3CS5K1X8ZLjlTdiJthJDVS805EYffl/UHPanbp+oOOj+Vh9+9ex6vdHmN8m5jQL7kzXTb5NA4OWmsB60mLD6YDLFS/cz998arDAmamsBY7fzTQsgz9ptE6uuZVeqxolC6WG4F6hgw0a3Yni+owyM2H6jdCvYDI2U0Zg+NmNyZ0d2pa/iY9/dyqW/uwgNL7+mPjblag5+vtaI1Qf+W156yJ0NdEQoiLKV/CwRsAfwog2r5MG7mSMumAGRl38LxRuvQ+6apdj7V8vxqc3TkXL/H8gIunRH+vTG7vLMQH/nVyUCawnLX0AJ56dsHtm99HsDVz8whKfk9j+Jo3x4K5wLG1diasb7fId3XsOEvgtLpCCYavhqokZQVo2bDLWKIUGAzRtIwjw5xSWibtRhZb3XsBHNxyD5dcfLeHnkVc5BiOn/xJb/vBFVE47X2+OiiHE7Npdg54UjxPaOqQGWScu1ViMOO0WbPrd2SjZ7RidJrFu5k+x8v9PQcMzv1dRXE+g4xJ6r4WGezECL46HntLSt+yatLkZ4OlPIy8dUPk5t5+9UPxd35FSCbpSni4Z9w9lDcHp0NxJLri51kCDU6+5O90um9iIDCF0I/i1k/1JI6axJ7cJ1WCAanYrNfAbhlYN7LnPE+AXKglCtK0eOXkFKJ9yDGqOvApFW0pRKGhb+hpqZ/4Kja/OkNqgA7mitBFPO6wcHqSBS1cnr3IUhh14ESoPvkzcGjNnt+H5P6L+qevR+clCiStWt0vV2Yrp1mAmNBzkMdR7Jwa9AA/+Ozk68qeB4jQNcGT1ty8AS9bYiAEEV3ZRyflJuYqME/Xo9nA11+nS4FwuDV2u+uIC9IWrTM/PbpuZKRADudyRn3DSWLOxV9AtywRCG8D86WP8TBaY8AAZAWk8hmhrnSh5BYbtMx3VX/4WCkZPUJaW959TQ2h+83HlzeE0aSIe1RFg9ixV7HMaqo74NvJrttRLzW88irrHrkX7otniehWAvxxjy3H/mXoQ0hcj0OsWGkg0gr4aAMFFKT99ItElGWywXcC1BJnevSIMONj2vYPTm+YcFmkZAOErrQsPoBHwwNK8RdyYYSNRecBZqD78MnWNiKY3ZqohtL7/rNwu9+flo2ziVzH8yO9LrSHFhaBt8WzUzfyFGMu/tLbgbxUnpmtwjGDUz/qnvdz1gN2jLJk3BA7ZBnhhid//P1jgtosX7Ju4GCeTCG8AJ4nzZZUiUYF4NEqhwQDNmBEQ4vLQrcmvGYuqg85H1SEXaWOZaHjpXjTOmyHuzrko2+UIjetYtUgU/5donP0XoLNFJ9CpbCsvMV1Jyu7xJMUTGjbvq6fugnsnBr0AD+ad+msA9Le5C8OGGimm68H1wYM55YHP5Ioz7kI9UAhtAK+KAWh+bjAjYLyoXlebGEITCjfdRozgElRNO0/9eAf+anzdE79G/axbEG3gzytVSEOOXSkufYYSvT+TPPbzuHhCwynk9GAE5B318/77L8ypO+cAs5faiC8w2A45RBq93MAr3SnO6SC8AZzIGkD/8y6N8xXIhY1SGB6fJiiYoJvC2HOfpyeF9OM5VSHe3oLCLXdDtTSUS7f/Ehpfe0T8/BvQ+dliXcCiC2+YJkGiPJNOPXXxgoF0h0b/PDNTPTkgdetLwJsr9Gt/YcEF+PwNgt5+5rW/SM8ACJexG4ER8DzeTqc4rnOLolxtlp+PnPwSueZey+dPlGfSqacuXjBQRjD62szNdea06btmZ3ZH6Y0J3Gadfv9ANHqTEbpy8cxEqAbjJmuD5mPCEu/x+JTx3XkZUBWyPIH4IL9Qnycxnj94l1NQimhLIyKcUZpXLNHuBsLnT5Rn0qmnHi/DVmWVx1AlyfGEhlPISTVOkEGwL/6r4hpkuktwYwCVngtbBkP5iT4MhDGg/+VglCJRgXg0SmF4fJqgvAJfnq8wSjyeRGX3eZLjIzqDE/Ecj8dRA58/+T7H4z8zmcdQJX0xAgYtzSS4w/ORO2ZmPszGAk79OEoMm+sjBgtpGECSsgvV4MZgBIJUchw18PkT5aVQXuU172V4DFWSHE9oOIWcpHfKNLionT9KsSHm5AwEuCfpnmNNA3iwkKYLxJQFFE+oyWCTYl+BAvwej08TZAh8eYkK4/OkeiYPvctx1MDnT5SXQnkFmTKCgQIVhQbAXdo+7+C0j69IjeZ2mxsspO8CdctgG2UzOlGBeDRKYXh8OpSMwOMdAPDHq4/YAdh8gAaKBhr8MpzezMUtG2J6dfhHuszUg8nQRAUiTYoXmLBRCsPj0zDKq8TjCfAL9Xl6l+Oogc+fKM+kU0893mQeQ5U4xXbxhIZTyxkocGvC43b9fDaKudLs2F0y96N56SK8C+QdHElSdqGGJyleYMJGKQyPT8MorxKPJ8Av1OfpXY6jBj5/orxUykte816Gx1AlIYzAvzBw2EEaxWfu+flrFB8jjV5uy2K/4qAjjRrAVyQlSpnsgOIJNTzmdXwFCvB7PD5NkCHw5aV6JpHqmTz0LsdRA58/UZ6vvInybDYpj6FKkuMJDQfed4DBFPB3vvgjFRtqpVY64OguXbe9tzJtmQ2F9D5VKoUMhjVgo6xSJCoQjwGlCNAwyqvE4wnwC/V5epfjqIHPnyjPpFNPPV6GbW4pj6FKkuMJDftyBhpUKv7a4+5mJ8mNFkwnf6eMxrqhEdoAUimSRzTzUylkUrzAhKkUqRQyFS8DSc/0eFI9k4fe5Thq4PMnyvOVN1Ee34sBe9njSYonNGzjBwH0pdmgnLgR9wwxbcdKm2VD7YMUROipEFl8vsBM5S+zcKPaD4RuiG1LguBPKY0fAeyztfmRjY0FWQPIYkgjvTZAFll8wZA1gCyGNLIGkMWQRtYAshjSyBpAFkMaWQPIYkgjawBZDGlkDSCLIY2sAWQxhAH8H+lt25SjeYtPAAAAAElFTkSuQmCC;base64,iVBORw0KGgoAAAANSUhEUgAAACoAAAAqCAIAAABKoV4MAAAAAXNSR0IArs4c6QAAAARnQU1BAACxjwv8YQUAAAAJcEhZcwAADsMAAA7DAcdvqGQAAAJ8SURBVFhH7ZbrT9NgFIf9E5XvfhPFS7wF4yWKotEYY0SNHzTDW7ywIeAAxyao2zBzQGAgTMAwGAY2NnFEhyA48OfvWNNuZdO1cc6Yvnk+rKenfd6e9+3pNqGsw9KXcVj6Mo5/Ur/8FQvLJYcjvz4YRY0LR9tLyAmXiPLruyOosGGzDRX1peJQq4jy6/0RbLFh6z1saygVt3pEZOk3Dkv/3+tXMmb12+2odeNGAM4R4U4vTntQ5dCn/QLz+p2NuN+PsQTaw7gZFLrGEY6jYxS7GvXJhTCvv92Lt0lUO6UGSmSHA0faMDiL17FiZ2BSf9KNyDzOPNXHCcUjcTQM4LgLF1/I6ux+pM9RMakfmkXTkPbcOmo9mE4hPIeXkxiOSWblhhwFM3o+35eMfKx08WNPpB7ceqQ+KL+ZybTxJE659ckKhvWVdpztRGY9J0hY7fnPiH/CwwH9Kc8YvBM4+DhPtQzrr/jRM43QTE5wXzPeL8ojnutCNJVzivCSwRm8iuJ6QD8DY/qaDowmUOfF3mYtyN3O4No6Yh+RSEthJj/I8qsJVB5owflnknatW4sTA3qWfSqFB/3axQqcE4tx2SePrsCdcdWvTyOXvEivoCrrnTSgr27F2jdZQvViBeoDU9jfokUK6dkYkmnU+bSIAT2XlhXOLrsC9XzH7CHc7ftJIT1ZWJLerB4aW/vVjBRQPVRg4/NNSCdQ4d5kUJdGOPWlVWlZasSY3hGSv795b/1b2PucwzK57KAxPW/R+eO7wo/NheeyHMXAPsEuxP3R9w6H27S7EWN6wu3Dl+fNnKwi37FiYMH5YWQ72tOUcytiWP9nsfSWPt+w9H9Bn8F34aLXNVxyyTMAAAAASUVORK5CYII=;" parent="EOwc6H_RPZuB2ROWFksD-14" vertex="1">
          <mxGeometry x="287" y="92" width="130.76" height="70.83" as="geometry" />
        </mxCell>
        <mxCell id="EOwc6H_RPZuB2ROWFksD-18" value="&lt;b&gt;EKS Managed Control Plane&lt;/b&gt;" style="text;html=1;align=center;verticalAlign=middle;resizable=0;points=[];autosize=1;strokeColor=none;fillColor=none;" parent="EOwc6H_RPZuB2ROWFksD-14" vertex="1">
          <mxGeometry x="270" y="153" width="179" height="26" as="geometry" />
        </mxCell>
        <mxCell id="VtrSbCma-A2oSEDDJz5--10" value="&lt;font style=&quot;&quot; color=&quot;#ff8000&quot;&gt;AWS EKS VPC&lt;/font&gt;" style="text;html=1;align=center;verticalAlign=middle;resizable=0;points=[];autosize=1;strokeColor=none;fillColor=none;" vertex="1" parent="EOwc6H_RPZuB2ROWFksD-14">
          <mxGeometry x="256" y="52" width="100" height="26" as="geometry" />
        </mxCell>
        <mxCell id="VtrSbCma-A2oSEDDJz5--8" value="&lt;b&gt;53 Hosted Zone&lt;/b&gt;" style="sketch=0;outlineConnect=0;fontColor=#232F3E;gradientColor=none;fillColor=#4D27AA;strokeColor=none;dashed=0;verticalLabelPosition=bottom;verticalAlign=top;align=center;html=1;fontSize=12;fontStyle=0;aspect=fixed;pointerEvents=1;shape=mxgraph.aws4.hosted_zone;" vertex="1" parent="EOwc6H_RPZuB2ROWFksD-14">
          <mxGeometry x="26" y="76.33" width="78" height="77" as="geometry" />
        </mxCell>
        <mxCell id="VtrSbCma-A2oSEDDJz5--26" value="EKS VPC" style="points=[[0,0],[0.25,0],[0.5,0],[0.75,0],[1,0],[1,0.25],[1,0.5],[1,0.75],[1,1],[0.75,1],[0.5,1],[0.25,1],[0,1],[0,0.75],[0,0.5],[0,0.25]];outlineConnect=0;gradientColor=none;html=1;whiteSpace=wrap;fontSize=12;fontStyle=0;container=1;pointerEvents=0;collapsible=0;recursiveResize=0;shape=mxgraph.aws4.group;grIcon=mxgraph.aws4.group_vpc;strokeColor=#248814;fillColor=none;verticalAlign=top;align=left;spacingLeft=30;fontColor=#AAB7B8;dashed=0;" vertex="1" parent="1">
          <mxGeometry x="105.5" y="240" width="723" height="448" as="geometry" />
        </mxCell>
        <mxCell id="VtrSbCma-A2oSEDDJz5--7" value="&lt;b&gt;Endpoint Private Access&lt;/b&gt;" style="text;html=1;align=left;verticalAlign=middle;resizable=0;points=[];autosize=1;strokeColor=none;fillColor=none;" vertex="1" parent="1">
          <mxGeometry x="439" y="140" width="158" height="26" as="geometry" />
        </mxCell>
        <mxCell id="VtrSbCma-A2oSEDDJz5--36" value="" style="html=1;endArrow=classic;elbow=vertical;startArrow=classic;startFill=1;strokeColor=#6600CC;rounded=0;fontColor=#FF8000;endFill=1;" edge="1" parent="1" target="VtrSbCma-A2oSEDDJz5--11">
          <mxGeometry width="100" relative="1" as="geometry">
            <mxPoint x="412" y="78" as="sourcePoint" />
            <mxPoint x="556" y="264" as="targetPoint" />
          </mxGeometry>
        </mxCell>
        <mxCell id="VtrSbCma-A2oSEDDJz5--11" value="" style="sketch=0;outlineConnect=0;fontColor=#232F3E;gradientColor=none;fillColor=#4D27AA;strokeColor=none;dashed=0;verticalLabelPosition=bottom;verticalAlign=top;align=center;html=1;fontSize=12;fontStyle=0;aspect=fixed;pointerEvents=1;shape=mxgraph.aws4.endpoints;" vertex="1" parent="1">
          <mxGeometry x="391" y="156" width="40" height="40" as="geometry" />
        </mxCell>
        <mxCell id="VtrSbCma-A2oSEDDJz5--39" value="" style="edgeStyle=elbowEdgeStyle;html=1;endArrow=classic;startArrow=classic;startFill=1;endFill=1;strokeColor=#6600CC;rounded=0;fontColor=#FF8000;elbow=vertical;" edge="1" parent="1">
          <mxGeometry width="100" relative="1" as="geometry">
            <mxPoint x="427" y="169" as="sourcePoint" />
            <mxPoint x="602" y="207" as="targetPoint" />
            <Array as="points">
              <mxPoint x="598" y="169" />
            </Array>
          </mxGeometry>
        </mxCell>
        <mxCell id="VtrSbCma-A2oSEDDJz5--31" value="AWS Networking Account" style="points=[[0,0],[0.25,0],[0.5,0],[0.75,0],[1,0],[1,0.25],[1,0.5],[1,0.75],[1,1],[0.75,1],[0.5,1],[0.25,1],[0,1],[0,0.75],[0,0.5],[0,0.25]];outlineConnect=0;gradientColor=none;html=1;whiteSpace=wrap;fontSize=12;fontStyle=0;container=1;pointerEvents=0;collapsible=0;recursiveResize=0;shape=mxgraph.aws4.group;grIcon=mxgraph.aws4.group_aws_cloud;strokeColor=#232F3E;fillColor=none;verticalAlign=top;align=left;spacingLeft=30;fontColor=#232F3E;dashed=0;" vertex="1" parent="1">
          <mxGeometry x="71" y="178" width="782" height="643" as="geometry" />
        </mxCell>
        <mxCell id="VtrSbCma-A2oSEDDJz5--16" value="Private subnet" style="points=[[0,0],[0.25,0],[0.5,0],[0.75,0],[1,0],[1,0.25],[1,0.5],[1,0.75],[1,1],[0.75,1],[0.5,1],[0.25,1],[0,1],[0,0.75],[0,0.5],[0,0.25]];outlineConnect=0;gradientColor=none;html=1;whiteSpace=wrap;fontSize=12;fontStyle=0;container=1;pointerEvents=0;collapsible=0;recursiveResize=0;shape=mxgraph.aws4.group;grIcon=mxgraph.aws4.group_security_group;grStroke=0;strokeColor=#147EBA;fillColor=#E6F2F8;verticalAlign=top;align=left;spacingLeft=30;fontColor=#147EBA;dashed=0;" vertex="1" parent="VtrSbCma-A2oSEDDJz5--31">
          <mxGeometry x="80" y="240" width="189" height="233" as="geometry" />
        </mxCell>
        <mxCell id="VtrSbCma-A2oSEDDJz5--17" value="" style="sketch=0;points=[[0,0,0],[0.25,0,0],[0.5,0,0],[0.75,0,0],[1,0,0],[0,1,0],[0.25,1,0],[0.5,1,0],[0.75,1,0],[1,1,0],[0,0.25,0],[0,0.5,0],[0,0.75,0],[1,0.25,0],[1,0.5,0],[1,0.75,0]];outlineConnect=0;fontColor=#232F3E;gradientColor=#F78E04;gradientDirection=north;fillColor=#D05C17;strokeColor=#ffffff;dashed=0;verticalLabelPosition=bottom;verticalAlign=top;align=center;html=1;fontSize=12;fontStyle=0;aspect=fixed;shape=mxgraph.aws4.resourceIcon;resIcon=mxgraph.aws4.ec2;" vertex="1" parent="VtrSbCma-A2oSEDDJz5--16">
          <mxGeometry x="54" y="149" width="58" height="58" as="geometry" />
        </mxCell>
        <mxCell id="VtrSbCma-A2oSEDDJz5--18" value="&lt;b&gt;EC2 Instances&lt;/b&gt;" style="text;html=1;align=center;verticalAlign=middle;resizable=0;points=[];autosize=1;strokeColor=none;fillColor=none;" vertex="1" parent="VtrSbCma-A2oSEDDJz5--16">
          <mxGeometry x="36" y="202" width="100" height="26" as="geometry" />
        </mxCell>
        <mxCell id="VtrSbCma-A2oSEDDJz5--19" value="Private subnet" style="points=[[0,0],[0.25,0],[0.5,0],[0.75,0],[1,0],[1,0.25],[1,0.5],[1,0.75],[1,1],[0.75,1],[0.5,1],[0.25,1],[0,1],[0,0.75],[0,0.5],[0,0.25]];outlineConnect=0;gradientColor=none;html=1;whiteSpace=wrap;fontSize=12;fontStyle=0;container=1;pointerEvents=0;collapsible=0;recursiveResize=0;shape=mxgraph.aws4.group;grIcon=mxgraph.aws4.group_security_group;grStroke=0;strokeColor=#147EBA;fillColor=#E6F2F8;verticalAlign=top;align=left;spacingLeft=30;fontColor=#147EBA;dashed=0;" vertex="1" parent="VtrSbCma-A2oSEDDJz5--31">
          <mxGeometry x="507" y="237" width="190" height="236" as="geometry" />
        </mxCell>
        <mxCell id="VtrSbCma-A2oSEDDJz5--20" value="" style="sketch=0;points=[[0,0,0],[0.25,0,0],[0.5,0,0],[0.75,0,0],[1,0,0],[0,1,0],[0.25,1,0],[0.5,1,0],[0.75,1,0],[1,1,0],[0,0.25,0],[0,0.5,0],[0,0.75,0],[1,0.25,0],[1,0.5,0],[1,0.75,0]];outlineConnect=0;fontColor=#232F3E;gradientColor=#F78E04;gradientDirection=north;fillColor=#D05C17;strokeColor=#ffffff;dashed=0;verticalLabelPosition=bottom;verticalAlign=top;align=center;html=1;fontSize=12;fontStyle=0;aspect=fixed;shape=mxgraph.aws4.resourceIcon;resIcon=mxgraph.aws4.ec2;" vertex="1" parent="VtrSbCma-A2oSEDDJz5--19">
          <mxGeometry x="65" y="140" width="58" height="58" as="geometry" />
        </mxCell>
        <mxCell id="VtrSbCma-A2oSEDDJz5--42" value="Private subnet" style="points=[[0,0],[0.25,0],[0.5,0],[0.75,0],[1,0],[1,0.25],[1,0.5],[1,0.75],[1,1],[0.75,1],[0.5,1],[0.25,1],[0,1],[0,0.75],[0,0.5],[0,0.25]];outlineConnect=0;gradientColor=none;html=1;whiteSpace=wrap;fontSize=12;fontStyle=0;container=1;pointerEvents=0;collapsible=0;recursiveResize=0;shape=mxgraph.aws4.group;grIcon=mxgraph.aws4.group_security_group;grStroke=0;strokeColor=#147EBA;fillColor=#E6F2F8;verticalAlign=top;align=left;spacingLeft=30;fontColor=#147EBA;dashed=0;" vertex="1" parent="VtrSbCma-A2oSEDDJz5--19">
          <mxGeometry x="-426" y="3" width="189" height="233" as="geometry" />
        </mxCell>
        <mxCell id="VtrSbCma-A2oSEDDJz5--43" value="" style="sketch=0;points=[[0,0,0],[0.25,0,0],[0.5,0,0],[0.75,0,0],[1,0,0],[0,1,0],[0.25,1,0],[0.5,1,0],[0.75,1,0],[1,1,0],[0,0.25,0],[0,0.5,0],[0,0.75,0],[1,0.25,0],[1,0.5,0],[1,0.75,0]];outlineConnect=0;fontColor=#232F3E;gradientColor=#F78E04;gradientDirection=north;fillColor=#D05C17;strokeColor=#ffffff;dashed=0;verticalLabelPosition=bottom;verticalAlign=top;align=center;html=1;fontSize=12;fontStyle=0;aspect=fixed;shape=mxgraph.aws4.resourceIcon;resIcon=mxgraph.aws4.ec2;" vertex="1" parent="VtrSbCma-A2oSEDDJz5--42">
          <mxGeometry x="54" y="141" width="58" height="58" as="geometry" />
        </mxCell>
        <mxCell id="VtrSbCma-A2oSEDDJz5--44" value="&lt;b&gt;EC2 Instances&lt;/b&gt;" style="text;html=1;align=center;verticalAlign=middle;resizable=0;points=[];autosize=1;strokeColor=none;fillColor=none;" vertex="1" parent="VtrSbCma-A2oSEDDJz5--42">
          <mxGeometry x="35" y="195" width="100" height="26" as="geometry" />
        </mxCell>
        <mxCell id="VtrSbCma-A2oSEDDJz5--53" value="" style="sketch=0;outlineConnect=0;fontColor=#232F3E;gradientColor=none;fillColor=#4D27AA;strokeColor=none;dashed=0;verticalLabelPosition=bottom;verticalAlign=top;align=center;html=1;fontSize=12;fontStyle=0;aspect=fixed;pointerEvents=1;shape=mxgraph.aws4.elastic_network_interface;" vertex="1" parent="VtrSbCma-A2oSEDDJz5--42">
          <mxGeometry x="151" y="7" width="35" height="35" as="geometry" />
        </mxCell>
        <mxCell id="VtrSbCma-A2oSEDDJz5--46" value="Private subnet" style="points=[[0,0],[0.25,0],[0.5,0],[0.75,0],[1,0],[1,0.25],[1,0.5],[1,0.75],[1,1],[0.75,1],[0.5,1],[0.25,1],[0,1],[0,0.75],[0,0.5],[0,0.25]];outlineConnect=0;gradientColor=none;html=1;whiteSpace=wrap;fontSize=12;fontStyle=0;container=1;pointerEvents=0;collapsible=0;recursiveResize=0;shape=mxgraph.aws4.group;grIcon=mxgraph.aws4.group_security_group;grStroke=0;strokeColor=#147EBA;fillColor=#E6F2F8;verticalAlign=top;align=left;spacingLeft=30;fontColor=#147EBA;dashed=0;" vertex="1" parent="VtrSbCma-A2oSEDDJz5--19">
          <mxGeometry x="-213" y="3" width="189" height="233" as="geometry" />
        </mxCell>
        <mxCell id="VtrSbCma-A2oSEDDJz5--47" value="" style="sketch=0;points=[[0,0,0],[0.25,0,0],[0.5,0,0],[0.75,0,0],[1,0,0],[0,1,0],[0.25,1,0],[0.5,1,0],[0.75,1,0],[1,1,0],[0,0.25,0],[0,0.5,0],[0,0.75,0],[1,0.25,0],[1,0.5,0],[1,0.75,0]];outlineConnect=0;fontColor=#232F3E;gradientColor=#F78E04;gradientDirection=north;fillColor=#D05C17;strokeColor=#ffffff;dashed=0;verticalLabelPosition=bottom;verticalAlign=top;align=center;html=1;fontSize=12;fontStyle=0;aspect=fixed;shape=mxgraph.aws4.resourceIcon;resIcon=mxgraph.aws4.ec2;" vertex="1" parent="VtrSbCma-A2oSEDDJz5--46">
          <mxGeometry x="65" y="150" width="58" height="58" as="geometry" />
        </mxCell>
        <mxCell id="VtrSbCma-A2oSEDDJz5--48" value="&lt;b&gt;EC2 Instances&lt;/b&gt;" style="text;html=1;align=center;verticalAlign=middle;resizable=0;points=[];autosize=1;strokeColor=none;fillColor=none;" vertex="1" parent="VtrSbCma-A2oSEDDJz5--46">
          <mxGeometry x="47" y="203" width="100" height="26" as="geometry" />
        </mxCell>
        <mxCell id="VtrSbCma-A2oSEDDJz5--21" value="&lt;b&gt;EC2 Instances&lt;/b&gt;" style="text;html=1;align=center;verticalAlign=middle;resizable=0;points=[];autosize=1;strokeColor=none;fillColor=none;" vertex="1" parent="VtrSbCma-A2oSEDDJz5--19">
          <mxGeometry x="47" y="198" width="100" height="26" as="geometry" />
        </mxCell>
        <mxCell id="VtrSbCma-A2oSEDDJz5--55" value="" style="sketch=0;outlineConnect=0;fontColor=#232F3E;gradientColor=none;fillColor=#4D27AA;strokeColor=none;dashed=0;verticalLabelPosition=bottom;verticalAlign=top;align=center;html=1;fontSize=12;fontStyle=0;aspect=fixed;pointerEvents=1;shape=mxgraph.aws4.elastic_network_interface;" vertex="1" parent="VtrSbCma-A2oSEDDJz5--19">
          <mxGeometry x="150" y="6" width="35" height="35" as="geometry" />
        </mxCell>
        <mxCell id="VtrSbCma-A2oSEDDJz5--23" value="Private subnet" style="points=[[0,0],[0.25,0],[0.5,0],[0.75,0],[1,0],[1,0.25],[1,0.5],[1,0.75],[1,1],[0.75,1],[0.5,1],[0.25,1],[0,1],[0,0.75],[0,0.5],[0,0.25]];outlineConnect=0;gradientColor=none;html=1;whiteSpace=wrap;fontSize=12;fontStyle=0;container=1;pointerEvents=0;collapsible=0;recursiveResize=0;shape=mxgraph.aws4.group;grIcon=mxgraph.aws4.group_security_group;grStroke=0;strokeColor=#147EBA;fillColor=#E6F2F8;verticalAlign=top;align=left;spacingLeft=30;fontColor=#147EBA;dashed=0;" vertex="1" parent="VtrSbCma-A2oSEDDJz5--31">
          <mxGeometry x="293" y="240" width="188" height="233" as="geometry" />
        </mxCell>
        <mxCell id="VtrSbCma-A2oSEDDJz5--24" value="" style="sketch=0;points=[[0,0,0],[0.25,0,0],[0.5,0,0],[0.75,0,0],[1,0,0],[0,1,0],[0.25,1,0],[0.5,1,0],[0.75,1,0],[1,1,0],[0,0.25,0],[0,0.5,0],[0,0.75,0],[1,0.25,0],[1,0.5,0],[1,0.75,0]];outlineConnect=0;fontColor=#232F3E;gradientColor=#F78E04;gradientDirection=north;fillColor=#D05C17;strokeColor=#ffffff;dashed=0;verticalLabelPosition=bottom;verticalAlign=top;align=center;html=1;fontSize=12;fontStyle=0;aspect=fixed;shape=mxgraph.aws4.resourceIcon;resIcon=mxgraph.aws4.ec2;" vertex="1" parent="VtrSbCma-A2oSEDDJz5--23">
          <mxGeometry x="65" y="139" width="58" height="58" as="geometry" />
        </mxCell>
        <mxCell id="VtrSbCma-A2oSEDDJz5--51" value="" style="rounded=0;whiteSpace=wrap;html=1;strokeColor=#FF8000;strokeWidth=2;dashed=1;fillColor=none;" vertex="1" parent="VtrSbCma-A2oSEDDJz5--23">
          <mxGeometry x="-227" y="92" width="646" height="129" as="geometry" />
        </mxCell>
        <mxCell id="VtrSbCma-A2oSEDDJz5--49" value="" style="shape=image;verticalLabelPosition=bottom;labelBackgroundColor=default;verticalAlign=top;aspect=fixed;imageAspect=0;image=data:image/png,iVBORw0KGgoAAAANSUhEUgAAADAAAAAoCAYAAAC4h3lxAAAAAXNSR0IArs4c6QAAAARnQU1BAACxjwv8YQUAAAAJcEhZcwAADsMAAA7DAcdvqGQAAAMiSURBVFhH7VhLaBNRFL0z+TWNrf/YICqKWkUXuhGlWMSVIG4EFyK4kGKlIIh04Vo3LlRciRUVXIiu3IjgSkSpiBsVFL8o6qI1fhubpPnNeO6dafOxxUl8LzGQA5P77vvc3HPv+8wbwwaoiVFG4FX/Arc0PbqHvrqlcjRyXFUE6o2qCZTifyAzE4FSmK5sWughgKTauYxI3VBPwLZg1UcdG3eKFF0j1BLgiFsWRfccp8WHr0OeEF1nJhQSgJNwNLr3JIVX91A2/h5yi+gOAT0k1GbA56OJD09p5GI/WePfIA+JzvW6oJCAIZH+ef8KFRJxMgJtIll3MoB2DVC+iE1/CD9sFk5Diq4RygnUGy0CAq/bpNd+VUANARxYtpV3yoaBcoGyn9+JZJ0h7XywKYZ3Ahw9dqj0KeTJgFOxA+co0t1LdjYNh02yUmM0cumgSNa5ntu5H/fncX/YqjE7HgnYZPiD5OtcWP7MjpIRilD67UPqgnPta7dNZcJmJ1lC53pu537cn8dV2mL7/D/VwtPrtJ3PUvuaXuradwqO5dzaIixEuG3ZBsp8ekYfT++aygS8x3kQpqWDNym0ZD0OtSdkBsPuqCIMX4BGrw5S6uU9l4gDL6/THu8DyIAvSGa4w9WL4Eh3btpN83YckRM49WYYvvvRALOyHpCBVT0U6xui77fPUuLRDdhCewWs9C/YyqJUPPAU3gfgCLJQSHwpf8biZGeSFF65mUYvD1DqxV3HeR7hOsk613M79+P+PK7SFtsvdd4r1NzIeKEiek7kLTIjczHdzmBaHCUr+cNpRyY4i9zuFfW7kWEXmYw8Tx3eaYKLVoic3F2knXcbxVBDwN3r/wqv/aqAGgINRItAJaw8LvN8jeQdBVJ0jVBIwNn352zdLyernZuAjIruzP1pN7t/htoMFApyIsf6LpA5az7kedG5XhcUEkCUEen4tWOUfj1MwehyyAeiOxlQvwMx1H9alO9Cfoqs207J53d4UeBfaotTYz4tsrM4sMYf3xJZq/Neocc6powRwGVepo5e6A1PHdD0BGZcxM2C1hRqNFoEGgui3/g2gEiyDoABAAAAAElFTkSuQmCC;clipPath=inset(0% 18.75% 15% 10.42%);" vertex="1" parent="VtrSbCma-A2oSEDDJz5--23">
          <mxGeometry x="74" y="89" width="29" height="29" as="geometry" />
        </mxCell>
        <mxCell id="VtrSbCma-A2oSEDDJz5--25" value="&lt;b&gt;EC2 Instances&lt;/b&gt;" style="text;html=1;align=center;verticalAlign=middle;resizable=0;points=[];autosize=1;strokeColor=none;fillColor=none;" vertex="1" parent="VtrSbCma-A2oSEDDJz5--23">
          <mxGeometry x="46" y="195" width="100" height="26" as="geometry" />
        </mxCell>
        <mxCell id="VtrSbCma-A2oSEDDJz5--52" value="&lt;b&gt;&lt;font color=&quot;#ff8000&quot;&gt;Auto Scaling group&lt;/font&gt;&lt;/b&gt;" style="text;html=1;align=center;verticalAlign=middle;resizable=0;points=[];autosize=1;strokeColor=none;fillColor=none;" vertex="1" parent="VtrSbCma-A2oSEDDJz5--23">
          <mxGeometry x="29.5" y="66" width="129" height="26" as="geometry" />
        </mxCell>
        <mxCell id="VtrSbCma-A2oSEDDJz5--54" value="" style="sketch=0;outlineConnect=0;fontColor=#232F3E;gradientColor=none;fillColor=#4D27AA;strokeColor=none;dashed=0;verticalLabelPosition=bottom;verticalAlign=top;align=center;html=1;fontSize=12;fontStyle=0;aspect=fixed;pointerEvents=1;shape=mxgraph.aws4.elastic_network_interface;" vertex="1" parent="VtrSbCma-A2oSEDDJz5--23">
          <mxGeometry x="150" y="5" width="35" height="35" as="geometry" />
        </mxCell>
        <mxCell id="VtrSbCma-A2oSEDDJz5--27" value="Public subnet" style="points=[[0,0],[0.25,0],[0.5,0],[0.75,0],[1,0],[1,0.25],[1,0.5],[1,0.75],[1,1],[0.75,1],[0.5,1],[0.25,1],[0,1],[0,0.75],[0,0.5],[0,0.25]];outlineConnect=0;gradientColor=none;html=1;whiteSpace=wrap;fontSize=12;fontStyle=0;container=1;pointerEvents=0;collapsible=0;recursiveResize=0;shape=mxgraph.aws4.group;grIcon=mxgraph.aws4.group_security_group;grStroke=0;strokeColor=#248814;fillColor=#E9F3E6;verticalAlign=top;align=left;spacingLeft=30;fontColor=#248814;dashed=0;" vertex="1" parent="VtrSbCma-A2oSEDDJz5--31">
          <mxGeometry x="80" y="110" width="189" height="130" as="geometry" />
        </mxCell>
        <mxCell id="VtrSbCma-A2oSEDDJz5--28" value="Public subnet" style="points=[[0,0],[0.25,0],[0.5,0],[0.75,0],[1,0],[1,0.25],[1,0.5],[1,0.75],[1,1],[0.75,1],[0.5,1],[0.25,1],[0,1],[0,0.75],[0,0.5],[0,0.25]];outlineConnect=0;gradientColor=none;html=1;whiteSpace=wrap;fontSize=12;fontStyle=0;container=1;pointerEvents=0;collapsible=0;recursiveResize=0;shape=mxgraph.aws4.group;grIcon=mxgraph.aws4.group_security_group;grStroke=0;strokeColor=#248814;fillColor=#E9F3E6;verticalAlign=top;align=left;spacingLeft=30;fontColor=#248814;dashed=0;" vertex="1" parent="VtrSbCma-A2oSEDDJz5--31">
          <mxGeometry x="292.5" y="110" width="189" height="130" as="geometry" />
        </mxCell>
        <mxCell id="VtrSbCma-A2oSEDDJz5--29" value="Public subnet" style="points=[[0,0],[0.25,0],[0.5,0],[0.75,0],[1,0],[1,0.25],[1,0.5],[1,0.75],[1,1],[0.75,1],[0.5,1],[0.25,1],[0,1],[0,0.75],[0,0.5],[0,0.25]];outlineConnect=0;gradientColor=none;html=1;whiteSpace=wrap;fontSize=12;fontStyle=0;container=1;pointerEvents=0;collapsible=0;recursiveResize=0;shape=mxgraph.aws4.group;grIcon=mxgraph.aws4.group_security_group;grStroke=0;strokeColor=#248814;fillColor=#E9F3E6;verticalAlign=top;align=left;spacingLeft=30;fontColor=#248814;dashed=0;" vertex="1" parent="VtrSbCma-A2oSEDDJz5--31">
          <mxGeometry x="507.5" y="107" width="189" height="130" as="geometry" />
        </mxCell>
      </root>
    </mxGraphModel>
  </diagram>
</mxfile>
